<?xml version="1.0" encoding="UTF-8"?>
<svg width="400" height="500" viewBox="0 0 400 500" fill="none" xmlns="http://www.w3.org/2000/svg">
  <!-- Background -->
  <rect width="400" height="500" fill="#1A3C34"/>

  <!-- Fingerprint Hand Icon -->
  <g transform="translate(100, 80)">
    <!-- Palm Base -->
    <path d="M100 180C100 180 80 200 70 220C60 240 55 260 55 280C55 300 60 320 70 340C80 360 100 380 100 380" stroke="#39FF14" stroke-width="12" fill="none"/>
    
    <!-- Thumb -->
    <path d="M100 180C110 160 130 140 150 135C170 130 190 135 200 150C210 165 205 185 195 200C185 215 165 220 150 215C135 210 120 195 115 180L100 180" fill="#39FF14"/>
    <path d="M115 180C120 195 135 210 150 215" stroke="#0F4C3A" stroke-width="4"/>

    <!-- Fingerprint Lines (Concentric Arcs) -->
    <path d="M100 180C100 180 120 160 140 155C160 150 180 155 190 170C200 185 195 205 180 215C165 225 140 220 125 205C110 190 100 180 100 180" fill="none" stroke="#39FF14" stroke-width="6"/>
    <path d="M100 180C100 180 125 165 145 162C165 159 185 164 193 178C201 192 197 208 185 218C173 228 155 225 138 215C121 205 108 192 100 180" fill="none" stroke="#39FF14" stroke-width="5"/>
    <path d="M100 180C100 180 128 170 145 168C162 166 178 170 185 182C192 194 189 206 180 214C171 222 157 220 143 213C129 206 115 195 100 180" fill="none" stroke="#39FF14" stroke-width="4"/>
    
    <!-- Finger ridges (stylized) -->
    <path d="M70 240C75 235 85 232 95 235C105 238 110 245 105 250C100 255 90 255 80 250C70 245 65 240 70 240" fill="none" stroke="#39FF14" stroke-width="4"/>
    <path d="M75 260C80 255 90 252 100 255C110 258 115 265 110 270C105 275 95 275 85 270C75 265 70 260 75 260" fill="none" stroke="#39FF14" stroke-width="4"/>
    <path d="M80 280C85 275 95 272 105 275C115 278 120 285 115 290C110 295 100 295 90 290C80 285 75 280 80 280" fill="none" stroke="#39FF14" stroke-width="4"/>
  </g>

  <!-- Text: TRACETRAIL -->
  <text x="200" y="360" font-family="Arial, sans-serif" font-size="56" font-weight="bold" fill="#FFFFFF" text-anchor="middle" letter-spacing="2">TRACETRAIL</text>
  
  <!-- Text: LEVEL UP YOUR PRIVACY -->
  <text x="200" y="410" font-family="Arial, sans-serif" font-size="28" fill="#39FF14" text-anchor="middle" letter-spacing="1.5">
    <tspan x="200">LEVEL UP</tspan>
    <tspan x="200" dy="35">YOUR PRIVACY</tspan>
  </text>
</svg>
