<svg width="800" height="800" viewBox="0 0 800 800" fill="none" xmlns="http://www.w3.org/2000/svg">
  <defs>
    <linearGradient id="greenGradient" x1="0%" y1="0%" x2="100%" y2="100%">
      <stop offset="0%" style="stop-color:#4ade80;stop-opacity:1" />
      <stop offset="100%" style="stop-color:#22c55e;stop-opacity:1" />
    </linearGradient>
  </defs>
  
  <!-- Background -->
  <rect width="800" height="800" fill="#000000"/>
  
  <!-- Fingerprint/Handprint Design -->
  <g transform="translate(400, 280)">
    
    <!-- Thumb - Top curved sections -->
    <path d="M -60 -120 Q -70 -140, -55 -155 Q -45 -165, -30 -160" 
          stroke="url(#greenGradient)" stroke-width="18" fill="none" 
          stroke-linecap="round" stroke-dasharray="25 15"/>
    
    <path d="M -35 -125 Q -45 -145, -25 -155 Q -10 -160, 0 -152" 
          stroke="url(#greenGradient)" stroke-width="18" fill="none" 
          stroke-linecap="round" stroke-dasharray="25 15"/>
    
    <path d="M -5 -130 Q -10 -150, 10 -157 Q 25 -160, 35 -150" 
          stroke="url(#greenGradient)" stroke-width="18" fill="none" 
          stroke-linecap="round" stroke-dasharray="25 15"/>
    
    <!-- Index finger - Upper right curved lines -->
    <path d="M 45 -140 Q 55 -155, 70 -150 Q 82 -145, 85 -130" 
          stroke="url(#greenGradient)" stroke-width="16" fill="none" 
          stroke-linecap="round" stroke-dasharray="22 12"/>
    
    <path d="M 60 -125 Q 75 -140, 92 -132 Q 105 -125, 107 -110" 
          stroke="url(#greenGradient)" stroke-width="16" fill="none" 
          stroke-linecap="round" stroke-dasharray="22 12"/>
    
    <path d="M 80 -115 Q 95 -128, 112 -118 Q 125 -110, 125 -95" 
          stroke="url(#greenGradient)" stroke-width="16" fill="none" 
          stroke-linecap="round" stroke-dasharray="22 12"/>
    
    <!-- Middle finger - Top right lines -->
    <path d="M 100 -100 Q 118 -112, 135 -100 Q 148 -90, 148 -72" 
          stroke="url(#greenGradient)" stroke-width="15" fill="none" 
          stroke-linecap="round" stroke-dasharray="20 12"/>
    
    <path d="M 115 -85 Q 135 -97, 152 -83 Q 165 -72, 163 -55" 
          stroke="url(#greenGradient)" stroke-width="15" fill="none" 
          stroke-linecap="round" stroke-dasharray="20 12"/>
    
    <!-- Ring finger - Right side lines -->
    <path d="M 130 -65 Q 150 -75, 165 -58 Q 175 -45, 173 -28" 
          stroke="url(#greenGradient)" stroke-width="14" fill="none" 
          stroke-linecap="round" stroke-dasharray="18 10"/>
    
    <path d="M 142 -48 Q 160 -58, 175 -40 Q 183 -25, 178 -8" 
          stroke="url(#greenGradient)" stroke-width="14" fill="none" 
          stroke-linecap="round" stroke-dasharray="18 10"/>
    
    <!-- Central concentric circles (palm area) -->
    <circle cx="0" cy="0" r="25" 
            stroke="url(#greenGradient)" stroke-width="16" fill="none" 
            stroke-dasharray="15 10" stroke-linecap="round"/>
    
    <circle cx="0" cy="0" r="52" 
            stroke="url(#greenGradient)" stroke-width="18" fill="none" 
            stroke-dasharray="20 12" stroke-linecap="round"/>
    
    <circle cx="0" cy="0" r="82" 
            stroke="url(#greenGradient)" stroke-width="20" fill="none" 
            stroke-dasharray="25 15" stroke-linecap="round"/>
    
    <circle cx="0" cy="0" r="115" 
            stroke="url(#greenGradient)" stroke-width="22" fill="none" 
            stroke-dasharray="30 18" stroke-linecap="round"/>
    
    <!-- Bottom curved lines (base of palm) -->
    <path d="M -100 80 Q -80 100, -50 105 Q -20 108, 0 105" 
          stroke="url(#greenGradient)" stroke-width="20" fill="none" 
          stroke-linecap="round" stroke-dasharray="28 15"/>
    
    <path d="M -110 105 Q -85 130, -45 135 Q -10 138, 20 132" 
          stroke="url(#greenGradient)" stroke-width="20" fill="none" 
          stroke-linecap="round" stroke-dasharray="28 15"/>
    
    <path d="M 10 105 Q 40 108, 70 100 Q 95 92, 110 75" 
          stroke="url(#greenGradient)" stroke-width="20" fill="none" 
          stroke-linecap="round" stroke-dasharray="28 15"/>
    
    <path d="M 25 130 Q 55 135, 90 122 Q 115 110, 130 88" 
          stroke="url(#greenGradient)" stroke-width="20" fill="none" 
          stroke-linecap="round" stroke-dasharray="28 15"/>
    
    <!-- Bottom right extensions -->
    <path d="M 120 95 Q 145 80, 160 55 Q 170 35, 172 10" 
          stroke="url(#greenGradient)" stroke-width="18" fill="none" 
          stroke-linecap="round" stroke-dasharray="25 14"/>
    
    <path d="M 135 110 Q 158 92, 170 65 Q 178 42, 178 18" 
          stroke="url(#greenGradient)" stroke-width="18" fill="none" 
          stroke-linecap="round" stroke-dasharray="25 14"/>
  </g>
  
  <!-- Text: TRACETRAIL -->
  <text x="400" y="560" 
        font-family="'Arial Black', 'Arial Bold', sans-serif" 
        font-size="85" 
        font-weight="900" 
        fill="#FFFFFF" 
        text-anchor="middle"
        letter-spacing="8">TRACETRAIL</text>
  
  <!-- Text: LEVEL UP YOUR PRIVACY -->
  <text x="400" y="630" 
        font-family="'Arial', sans-serif" 
        font-size="38" 
        font-weight="700" 
        fill="#22c55e" 
        text-anchor="middle"
        letter-spacing="12">LEVEL UP YOUR PRIVACY</text>
</svg>
